<?xml version="1.0" encoding="UTF-8" standalone="no"?>
<svg width="146px" height="64px" viewBox="0 0 146 64" version="1.1" xmlns="http://www.w3.org/2000/svg">
    <!-- Generator: Sketch 3.8.2 (29753) - http://www.bohemiancoding.com/sketch -->
    <title>Logo HES-SO</title>
    <desc>Created with Sketch.</desc>
    <defs></defs>
    <g id="Mockups" stroke="none" stroke-width="1" fill="none" fill-rule="evenodd">
        <g id="Pages/Formations/1.1-Formations---LG+-1920W" transform="translate(-1742.000000, -624.000000)" fill="#FFFFFF">
            <g id="Logo-HES-SO" transform="translate(1742.000000, 624.000000)">
                <path d="M24.7818,51.0498 C24.1998,51.0498 24.1578,51.0498 23.5428,51.0808 L23.4778,51.0088 C23.5098,49.8518 23.5428,48.6018 23.5318,47.5378 C23.2788,47.5378 23.0048,47.5278 22.5008,47.5278 C21.6448,47.5278 20.7008,47.5378 19.9458,47.5488 C19.9338,49.5108 19.9678,50.2028 20.0218,50.9778 L19.9678,51.0498 C19.3638,51.0498 19.3308,51.0498 18.7278,51.0808 L18.6618,51.0088 C18.7058,49.9958 18.7168,49.4698 18.7168,46.3398 C18.7168,44.9458 18.6838,44.4488 18.6518,43.8288 L18.7168,43.7568 C19.2768,43.7458 19.4078,43.7458 19.9338,43.7258 L19.9898,43.7978 C19.9788,44.4078 19.9568,45.2548 19.9568,46.6698 C20.5268,46.6808 20.8338,46.6908 21.5468,46.6908 C22.5548,46.6908 23.0158,46.6808 23.5318,46.6588 C23.5098,44.6968 23.5098,44.4698 23.4538,43.8288 L23.5098,43.7568 C24.1018,43.7458 24.1898,43.7458 24.7268,43.7258 L24.7818,43.7978 C24.7488,44.8008 24.7378,45.4508 24.7378,47.2588 C24.7378,49.2628 24.7818,50.0278 24.8478,50.9778 L24.7818,51.0498 Z" id="Fill-1"></path>
                <path d="M31.0655,47.8994 C31.0655,47.4654 31.0655,46.8974 30.9895,46.6074 C30.7585,45.8024 29.9695,45.5444 29.1575,45.5444 C28.5105,45.5444 27.8745,45.6784 27.2595,45.8844 L27.1945,45.9464 C27.1845,46.1634 27.1845,46.2254 27.1615,46.7004 L27.2495,46.7524 C27.7105,46.5664 28.2035,46.3604 28.9165,46.3604 C29.4645,46.3604 29.7165,46.5564 29.8265,46.7424 C29.9255,46.9084 29.9255,47.1034 29.9255,47.3824 L29.7385,47.4034 C27.7645,47.6204 26.5365,48.0654 26.5365,49.4494 C26.5365,50.4714 27.3045,51.1744 28.4005,51.1744 C29.2345,51.1744 29.7275,50.8024 29.9365,50.6474 L29.9255,51.0194 L29.9695,51.0814 C30.4745,51.0604 30.5615,51.0494 31.0765,51.0404 L31.1315,50.9874 C31.0765,50.3164 31.0655,50.2034 31.0655,48.9224 L31.0655,47.8994 Z M29.9365,48.1474 L29.9365,49.8724 C29.8155,49.9754 29.4205,50.3264 28.7405,50.3264 C27.6995,50.3264 27.6995,49.4394 27.6995,49.3874 C27.6995,48.4674 28.7295,48.3234 29.8375,48.1684 L29.9365,48.1474 Z" id="Fill-3"></path>
                <path d="M37.9312,45.71 C37.9092,46.494 37.8982,47.227 37.8982,48.065 C37.8982,49.335 37.9312,50.099 37.9532,50.544 C37.9532,50.689 37.9642,50.833 37.9752,50.978 L37.9312,51.041 C37.4052,51.05 37.3172,51.061 36.8122,51.081 L36.7462,51.019 L36.7582,50.586 C36.5162,50.751 35.9342,51.174 35.0362,51.174 C34.6082,51.174 34.1372,51.081 33.7862,50.822 C33.0842,50.286 33.0842,49.407 33.0732,48.602 L33.0732,47.961 C33.0512,46.484 33.0512,46.318 33.0172,45.761 L33.0732,45.689 C33.5882,45.678 33.6862,45.678 34.2022,45.637 L34.2682,45.71 L34.2232,47.972 C34.2232,48.251 34.2132,48.458 34.2232,48.953 C34.2352,49.387 34.2582,50.316 35.3652,50.316 C36.0122,50.316 36.4732,49.976 36.7362,49.779 C36.7462,49.221 36.7462,48.746 36.7462,48.148 C36.7462,46.711 36.7362,46.422 36.6702,45.75 L36.7362,45.678 C37.2412,45.668 37.3602,45.668 37.8652,45.637 L37.9312,45.71 Z" id="Fill-5"></path>
                <path d="M42.4825,50.2339 C42.4495,50.5749 42.4495,50.6479 42.4385,50.9469 L42.3835,51.0089 C42.1535,51.0609 41.9675,51.1019 41.5615,51.1019 C41.2975,51.1019 40.6075,51.1019 40.2675,50.5659 C40.0695,50.2649 40.0695,50.0169 40.0695,48.7989 L40.0915,46.5259 C39.7075,46.5259 39.6965,46.5349 39.3025,46.5459 L39.2585,46.4839 C39.2805,46.1529 39.2805,46.0709 39.2805,45.7399 L39.3455,45.6779 C39.5865,45.6779 39.7295,45.6889 40.0915,45.6779 C40.0815,45.4609 40.0815,45.2339 40.0815,45.0169 C40.0695,44.8199 40.0595,44.6249 40.0485,44.4279 L40.1025,44.3559 C40.5965,44.2419 40.7175,44.2119 41.2215,44.0669 L41.2975,44.1179 C41.2655,44.7999 41.2545,44.9339 41.2545,45.6889 C41.7145,45.6779 41.8455,45.6779 42.4715,45.6569 L42.5265,45.7189 C42.5035,45.9879 42.4935,46.1019 42.4935,46.4529 L42.4385,46.5149 C41.8905,46.5039 41.8245,46.4939 41.2435,46.4939 L41.2215,48.4169 C41.2325,48.5399 41.2325,49.1289 41.2325,49.2739 C41.2325,50.0279 41.3315,50.2649 41.8795,50.2649 C42.1095,50.2649 42.2855,50.2139 42.4065,50.1719 L42.4825,50.2339 Z" id="Fill-7"></path>
                <path d="M48.3609,49.7383 C48.2179,49.8513 47.9769,50.0383 47.5709,50.1923 C47.2649,50.2963 46.9349,50.3473 46.6179,50.3473 C46.2769,50.3473 45.6509,50.2963 45.2029,49.7893 C44.8289,49.3673 44.7969,48.8603 44.7859,48.4983 C46.5839,48.4883 46.8809,48.4883 48.5919,48.4983 L48.6679,48.4363 C48.6779,47.9823 48.7019,46.9593 48.0759,46.2563 C47.7459,45.8843 47.1439,45.5443 46.2769,45.5443 C44.8409,45.5443 43.6119,46.4843 43.6119,48.4053 C43.6119,50.2033 44.7409,51.1743 46.5399,51.1743 C47.5159,51.1743 48.1079,50.8753 48.2959,50.7823 L48.3609,50.7093 C48.3829,50.3063 48.3939,50.2033 48.4479,49.7893 L48.3609,49.7383 Z M47.5389,47.7023 C46.5289,47.7133 46.1129,47.7243 44.7859,47.7133 C44.8959,46.6803 45.6189,46.2873 46.2329,46.2873 C46.7259,46.2873 47.2089,46.5263 47.4289,47.0933 C47.5159,47.3313 47.5279,47.5583 47.5389,47.7023 L47.5389,47.7023 Z" id="Fill-9"></path>
                <path d="M58.8242,50.2032 C58.7902,50.5552 58.7902,50.6262 58.7682,50.9782 L58.6912,51.0502 C56.5542,51.0502 56.2142,51.0602 54.1302,51.0812 L54.0742,51.0092 C54.1082,50.1922 54.1402,49.6352 54.1402,47.7442 C54.1402,46.0092 54.1402,45.0172 54.0632,43.8282 L54.1302,43.7572 C56.2892,43.7462 56.7182,43.7462 58.7362,43.7262 L58.8022,43.7982 C58.7682,44.1082 58.7462,44.2322 58.7252,44.6032 L58.6592,44.6762 C57.2442,44.6352 56.7722,44.6352 55.3812,44.6242 C55.3462,45.5752 55.3462,45.8752 55.3462,46.8242 C56.6972,46.8352 57.1132,46.8242 58.4502,46.8052 L58.5052,46.8762 C58.4622,47.2382 58.4622,47.3422 58.4502,47.6722 L58.3842,47.7442 C57.1132,47.7132 56.8372,47.7132 55.3462,47.7132 C55.3252,48.9112 55.3362,49.2012 55.3462,50.1822 C57.0032,50.1822 57.3422,50.1822 58.7572,50.1312 L58.8242,50.2032 Z" id="Fill-11"></path>
                <path d="M64.5928,49.8203 C64.5478,50.2643 64.5368,50.3163 64.5048,50.7403 L64.4268,50.8133 C64.1098,50.9573 63.6828,51.1643 62.9148,51.1643 C61.2578,51.1643 60.1838,50.0383 60.1838,48.4253 C60.1838,46.7843 61.2368,45.5443 62.9358,45.5443 C63.6488,45.5443 64.1538,45.7613 64.4378,45.8753 L64.4818,45.9463 C64.4378,46.3183 64.4268,46.4533 64.4058,46.7623 L64.3178,46.8043 C63.9568,46.5563 63.5398,46.4023 63.0998,46.4023 C62.1898,46.4023 61.3898,47.0623 61.3898,48.3843 C61.3898,49.7893 62.2348,50.2963 63.0898,50.2963 C63.8358,50.2963 64.2958,49.9343 64.5048,49.7793 L64.5928,49.8203 Z" id="Fill-13"></path>
                <path d="M71.128,48.2818 C71.107,47.5588 70.962,46.8358 70.459,46.2878 C69.978,45.7708 69.241,45.5448 68.496,45.5448 C67.4,45.5448 66.764,45.9668 66.457,46.2678 C65.722,46.9598 65.7,47.9718 65.7,48.3648 C65.7,48.7048 65.711,49.7588 66.457,50.4718 C66.807,50.8128 67.432,51.1648 68.42,51.1648 C69.187,51.1648 69.835,50.9878 70.317,50.5338 C70.679,50.1928 70.91,49.7898 71.029,49.2828 C71.107,48.9738 71.128,48.6328 71.128,48.2818 M69.933,48.3238 C69.943,48.5398 69.933,49.2328 69.68,49.6968 C69.363,50.2648 68.835,50.3888 68.429,50.3888 C68.211,50.3888 67.981,50.3478 67.784,50.2548 C66.917,49.8408 66.906,48.7988 66.906,48.3848 C66.906,47.9498 66.94,47.3508 67.234,46.9288 C67.618,46.3498 68.233,46.3288 68.442,46.3288 C69.055,46.3288 69.406,46.5978 69.615,46.9178 C69.889,47.3728 69.933,48.0648 69.933,48.3238" id="Fill-15"></path>
                <path d="M74.0557,51.0406 C73.5297,51.0496 73.4207,51.0606 72.9037,51.0806 L72.8497,51.0086 C72.8727,50.2756 72.9037,49.3456 72.9037,47.3616 C72.9037,45.9356 72.9037,44.4076 72.7957,43.0856 L72.8497,43.0226 C73.3867,42.9406 73.4987,42.9196 74.0467,42.8066 L74.1117,42.8776 C74.0347,44.2316 74.0347,45.5956 74.0347,46.9486 C74.0347,49.2116 74.0667,49.9956 74.1217,50.9786 L74.0557,51.0406 Z" id="Fill-17"></path>
                <path d="M80.5708,49.7383 C80.4278,49.8513 80.1868,50.0383 79.7808,50.1923 C79.4748,50.2963 79.1448,50.3473 78.8278,50.3473 C78.4868,50.3473 77.8628,50.2963 77.4118,49.7893 C77.0388,49.3673 77.0068,48.8603 76.9958,48.4983 C78.7938,48.4883 79.0908,48.4883 80.8008,48.4983 L80.8778,48.4363 C80.8898,47.9823 80.9098,46.9593 80.2858,46.2563 C79.9558,45.8843 79.3538,45.5443 78.4868,45.5443 C77.0498,45.5443 75.8218,46.4843 75.8218,48.4053 C75.8218,50.2033 76.9508,51.1743 78.7498,51.1743 C79.7268,51.1743 80.3188,50.8753 80.5048,50.7823 L80.5708,50.7093 C80.5918,50.3063 80.6048,50.2033 80.6578,49.7893 L80.5708,49.7383 Z M79.7468,47.7023 C78.7398,47.7133 78.3228,47.7243 76.9958,47.7133 C77.1048,46.6803 77.8288,46.2873 78.4438,46.2873 C78.9358,46.2873 79.4188,46.5263 79.6388,47.0933 C79.7268,47.3313 79.7378,47.5583 79.7468,47.7023 L79.7468,47.7023 Z" id="Fill-19"></path>
                <path d="M89.1143,46.9175 C89.9143,47.2495 90.9783,47.6825 90.9783,49.0045 C90.9783,50.1625 90.0673,51.2045 88.1593,51.2045 C86.9963,51.2045 86.2513,50.8755 85.9883,50.7505 L85.9443,50.6785 C85.9883,50.3155 85.9993,50.1205 86.0313,49.7275 L86.1413,49.6865 C86.4173,49.8625 87.0523,50.2955 88.0723,50.2955 C89.2023,50.2955 89.6753,49.7485 89.6753,49.1285 C89.6753,48.4055 89.0363,48.1275 88.3243,47.8685 L87.7763,47.6405 C86.9963,47.2995 85.9563,46.8555 85.9563,45.5955 C85.9563,45.2125 86.0653,44.8205 86.2953,44.5105 C86.8003,43.8285 87.7103,43.6015 88.5983,43.6015 C89.4663,43.6015 89.9903,43.7565 90.5723,43.9325 L90.6283,44.0145 C90.5833,44.4075 90.5723,44.5515 90.5403,44.9245 L90.4523,44.9655 C89.9813,44.7375 89.4663,44.4895 88.6433,44.4895 C87.7333,44.4895 87.1623,44.8925 87.1623,45.5025 C87.1623,45.9665 87.4913,46.1835 87.7203,46.3185 C87.8633,46.4015 87.9063,46.4215 88.5663,46.6905 L89.1143,46.9175 Z" id="Fill-21"></path>
                <path d="M93.8731,45.668 L93.7961,45.606 C93.3041,45.699 93.1821,45.73 92.6451,45.812 L92.5901,45.875 C92.7231,47.052 92.7231,47.775 92.7321,49.376 C92.7321,49.986 92.7431,50.596 92.7431,51.205 C92.7431,52.259 92.7231,52.909 92.7001,53.54 L92.7561,53.602 C93.1381,53.591 93.5231,53.581 93.9061,53.57 L93.9731,53.508 C93.9171,52.538 93.8951,52.269 93.8861,51.03 C94.0391,51.041 94.1711,51.05 94.3781,51.05 C96.6911,51.05 97.8211,49.677 97.8211,48.076 C97.8211,46.619 96.8461,45.544 95.4521,45.544 C94.5981,45.544 94.0711,45.936 93.8511,46.102 L93.8731,45.668 Z M93.8731,50.255 C93.8621,49.656 93.8511,49.046 93.8511,48.437 C93.8511,47.91 93.8621,47.383 93.8731,46.846 C94.1261,46.681 94.5421,46.411 95.1351,46.411 C96.0131,46.411 96.6151,47.073 96.6151,48.148 C96.6151,49.418 95.7811,50.286 94.3351,50.286 C94.1471,50.286 94.0161,50.265 93.8731,50.255 L93.8731,50.255 Z" id="Fill-23"></path>
                <path d="M104.0303,49.7383 C103.8853,49.8513 103.6453,50.0383 103.2393,50.1923 C102.9323,50.2963 102.6043,50.3473 102.2853,50.3473 C101.9463,50.3473 101.3203,50.2963 100.8713,49.7893 C100.4973,49.3673 100.4663,48.8603 100.4533,48.4983 C102.2533,48.4883 102.5483,48.4883 104.2593,48.4983 L104.3373,48.4363 C104.3453,47.9823 104.3693,46.9593 103.7433,46.2563 C103.4153,45.8843 102.8133,45.5443 101.9463,45.5443 C100.5093,45.5443 99.2803,46.4843 99.2803,48.4053 C99.2803,50.2033 100.4103,51.1743 102.2093,51.1743 C103.1843,51.1743 103.7773,50.8753 103.9633,50.7823 L104.0303,50.7093 C104.0513,50.3063 104.0623,50.2033 104.1163,49.7893 L104.0303,49.7383 Z M103.1523,43.3843 C102.9433,43.3953 102.7353,43.3953 102.5263,43.3953 C102.3173,43.3953 102.1213,43.3953 101.8803,43.3843 L101.8123,43.4373 C101.5733,44.1083 101.2543,44.7683 101.1433,45.0173 L101.1883,45.0893 C101.5733,45.0893 101.6933,45.0893 101.9893,45.1003 L102.0653,45.0583 C102.5593,44.3043 102.6583,44.1603 103.1953,43.4683 L103.1523,43.3843 Z M103.2063,47.7023 C102.1983,47.7133 101.7823,47.7243 100.4533,47.7133 C100.5633,46.6803 101.2883,46.2873 101.9023,46.2873 C102.3943,46.2873 102.8783,46.5263 103.0963,47.0933 C103.1843,47.3313 103.1953,47.5583 103.2063,47.7023 L103.2063,47.7023 Z" id="Fill-25"></path>
                <path d="M110.127,49.8203 C110.082,50.2643 110.073,50.3163 110.039,50.7403 L109.963,50.8133 C109.644,50.9573 109.217,51.1643 108.448,51.1643 C106.792,51.1643 105.718,50.0383 105.718,48.4253 C105.718,46.7843 106.772,45.5443 108.471,45.5443 C109.185,45.5443 109.688,45.7613 109.972,45.8753 L110.017,45.9463 C109.972,46.3183 109.963,46.4533 109.941,46.7623 L109.853,46.8043 C109.49,46.5563 109.074,46.4023 108.636,46.4023 C107.726,46.4023 106.925,47.0623 106.925,48.3843 C106.925,49.7893 107.769,50.2963 108.625,50.2963 C109.37,50.2963 109.83,49.9343 110.039,49.7793 L110.127,49.8203 Z" id="Fill-27"></path>
                <path d="M112.7373,44.1695 C112.1763,44.1905 112.0553,44.2005 111.5203,44.2525 L111.4543,44.1905 C111.4653,44.0565 111.4653,43.9115 111.4653,43.7775 C111.4653,43.5915 111.4543,43.4265 111.4433,43.2185 L111.5203,43.1575 C112.0903,43.1165 112.1893,43.1065 112.7373,43.0545 L112.8033,43.1165 C112.7923,43.5405 112.7923,43.6435 112.8033,44.0975 L112.7373,44.1695 Z M112.7243,51.0405 C112.1553,51.0495 112.0683,51.0495 111.5313,51.0815 L111.4753,51.0085 C111.5083,50.4615 111.5423,49.9865 111.5423,48.8395 C111.5423,46.8665 111.5083,46.4945 111.4323,45.8845 L111.4863,45.8125 C111.9573,45.7405 112.1233,45.7195 112.6713,45.6065 L112.7803,45.6685 C112.7483,46.2055 112.7143,46.7625 112.7143,48.0955 C112.7143,50.0175 112.7373,50.2755 112.7803,50.9785 L112.7243,51.0405 Z" id="Fill-29"></path>
                <path d="M118.9444,47.8994 C118.9444,47.4654 118.9444,46.8974 118.8674,46.6074 C118.6374,45.8024 117.8464,45.5444 117.0354,45.5444 C116.3874,45.5444 115.7534,45.6784 115.1384,45.8844 L115.0724,45.9464 C115.0614,46.1634 115.0614,46.2254 115.0414,46.7004 L115.1284,46.7524 C115.5894,46.5664 116.0814,46.3604 116.7954,46.3604 C117.3434,46.3604 117.5954,46.5564 117.7044,46.7424 C117.8024,46.9084 117.8024,47.1034 117.8024,47.3824 L117.6174,47.4034 C115.6434,47.6204 114.4164,48.0654 114.4164,49.4494 C114.4164,50.4714 115.1834,51.1744 116.2794,51.1744 C117.1124,51.1744 117.6064,50.8024 117.8154,50.6474 L117.8024,51.0194 L117.8464,51.0814 C118.3514,51.0604 118.4414,51.0494 118.9554,51.0404 L119.0084,50.9874 C118.9554,50.3164 118.9444,50.2034 118.9444,48.9224 L118.9444,47.8994 Z M117.8154,48.1474 L117.8154,49.8724 C117.6934,49.9754 117.2984,50.3264 116.6194,50.3264 C115.5774,50.3264 115.5774,49.4394 115.5774,49.3874 C115.5774,48.4674 116.6084,48.3234 117.7164,48.1684 L117.8154,48.1474 Z" id="Fill-31"></path>
                <path d="M122.1475,51.0406 C121.6215,51.0496 121.5095,51.0606 120.9965,51.0806 L120.9405,51.0086 C120.9615,50.2756 120.9965,49.3456 120.9965,47.3616 C120.9965,45.9356 120.9965,44.4076 120.8835,43.0856 L120.9405,43.0226 C121.4785,42.9406 121.5865,42.9196 122.1345,42.8066 L122.2005,42.8776 C122.1245,44.2316 122.1245,45.5956 122.1245,46.9486 C122.1245,49.2116 122.1575,49.9956 122.2125,50.9786 L122.1475,51.0406 Z" id="Fill-33"></path>
                <path d="M125.4141,44.1695 C124.8551,44.1905 124.7361,44.2005 124.1971,44.2525 L124.1311,44.1905 C124.1411,44.0565 124.1411,43.9115 124.1411,43.7775 C124.1411,43.5915 124.1311,43.4265 124.1221,43.2185 L124.1971,43.1575 C124.7671,43.1165 124.8661,43.1065 125.4141,43.0545 L125.4811,43.1165 C125.4701,43.5405 125.4701,43.6435 125.4811,44.0975 L125.4141,44.1695 Z M125.4031,51.0405 C124.8341,51.0495 124.7451,51.0495 124.2081,51.0815 L124.1541,51.0085 C124.1861,50.4615 124.2191,49.9865 124.2191,48.8395 C124.2191,46.8665 124.1861,46.4945 124.1101,45.8845 L124.1651,45.8125 C124.6361,45.7405 124.8021,45.7195 125.3491,45.6065 L125.4581,45.6685 C125.4271,46.2055 125.3921,46.7625 125.3921,48.0955 C125.3921,50.0175 125.4141,50.2755 125.4581,50.9785 L125.4031,51.0405 Z" id="Fill-35"></path>
                <path d="M129.7461,47.9102 C130.1861,48.0442 131.1831,48.3642 131.1831,49.4592 C131.1831,49.8722 131.0191,50.3382 130.5701,50.6782 C129.9881,51.1422 129.2091,51.1742 128.8141,51.1742 C128.2231,51.1742 127.7291,51.0712 127.3121,50.9152 C127.2571,50.8952 127.2021,50.8752 127.1481,50.8542 L127.0931,50.7612 C127.1361,50.3582 127.1361,50.3062 127.1591,49.8932 L127.2691,49.8622 C127.4661,50.0062 127.9471,50.3582 128.7931,50.3582 C129.6601,50.3582 129.9771,49.9032 129.9771,49.5832 C129.9771,49.1082 129.5071,48.9522 128.8361,48.7462 L128.4861,48.6332 C128.0351,48.4982 127.0501,48.2002 127.0501,47.1342 C127.0501,46.0712 128.0351,45.5442 129.2641,45.5442 C130.0741,45.5442 130.6451,45.7612 130.8431,45.8342 L130.8981,45.9062 C130.8541,46.2872 130.8431,46.3292 130.8111,46.7212 L130.7131,46.7622 C130.4361,46.5982 130.0101,46.3492 129.2981,46.3492 C129.1441,46.3492 128.9911,46.3602 128.8251,46.4022 C128.4951,46.4842 128.2231,46.7002 128.2231,47.0212 C128.2231,47.4662 128.6721,47.6002 129.3531,47.7962 L129.7461,47.9102 Z" id="Fill-37"></path>
                <path d="M137.1826,49.7383 C137.0396,49.8513 136.7986,50.0383 136.3936,50.1923 C136.0866,50.2963 135.7566,50.3473 135.4396,50.3473 C135.0986,50.3473 134.4746,50.2963 134.0226,49.7893 C133.6516,49.3673 133.6176,48.8603 133.6076,48.4983 C135.4056,48.4883 135.7016,48.4883 137.4126,48.4983 L137.4896,48.4363 C137.4996,47.9823 137.5236,46.9593 136.8976,46.2563 C136.5686,45.8843 135.9636,45.5443 135.0986,45.5443 C133.6626,45.5443 132.4346,46.4843 132.4346,48.4053 C132.4346,50.2033 133.5646,51.1743 135.3626,51.1743 C136.3386,51.1743 136.9306,50.8753 137.1186,50.7823 L137.1826,50.7093 C137.2036,50.3063 137.2146,50.2033 137.2706,49.7893 L137.1826,49.7383 Z M136.3046,43.3843 C136.0976,43.3953 135.8886,43.3953 135.6796,43.3953 C135.4716,43.3953 135.2736,43.3953 135.0346,43.3843 L134.9666,43.4373 C134.7256,44.1083 134.4086,44.7683 134.2976,45.0173 L134.3416,45.0893 C134.7256,45.0893 134.8466,45.0893 135.1416,45.1003 L135.2196,45.0583 C135.7136,44.3043 135.8106,44.1603 136.3496,43.4683 L136.3046,43.3843 Z M136.3596,47.7023 C135.3506,47.7133 134.9346,47.7243 133.6076,47.7133 C133.7176,46.6803 134.4406,46.2873 135.0536,46.2873 C135.5476,46.2873 136.0306,46.5263 136.2506,47.0933 C136.3386,47.3313 136.3496,47.5583 136.3596,47.7023 L136.3596,47.7023 Z" id="Fill-39"></path>
                <path d="M143.6201,49.7383 C143.4771,49.8513 143.2361,50.0383 142.8311,50.1923 C142.5221,50.2963 142.1941,50.3473 141.8771,50.3473 C141.5361,50.3473 140.9121,50.2963 140.4621,49.7893 C140.0891,49.3673 140.0571,48.8603 140.0461,48.4983 C141.8431,48.4883 142.1411,48.4883 143.8501,48.4983 L143.9271,48.4363 C143.9371,47.9823 143.9611,46.9593 143.3351,46.2563 C143.0061,45.8843 142.4011,45.5443 141.5361,45.5443 C140.0991,45.5443 138.8721,46.4843 138.8721,48.4053 C138.8721,50.2033 140.0021,51.1743 141.8001,51.1743 C142.7761,51.1743 143.3681,50.8753 143.5561,50.7823 L143.6201,50.7093 C143.6411,50.3063 143.6531,50.2033 143.7091,49.7893 L143.6201,49.7383 Z M142.7981,47.7023 C141.7891,47.7133 141.3721,47.7243 140.0461,47.7133 C140.1551,46.6803 140.8781,46.2873 141.4911,46.2873 C141.9871,46.2873 142.4691,46.5263 142.6881,47.0933 C142.7761,47.3313 142.7871,47.5583 142.7981,47.7023 L142.7981,47.7023 Z" id="Fill-41"></path>
                <path d="M33.753,55.4244 C33.807,56.0234 33.863,56.6434 33.852,57.9244 C33.555,57.9034 33.446,57.9034 33.216,57.9034 C32.646,57.9034 31.603,57.9354 30.802,58.6164 C30.342,58.9984 29.837,59.7114 29.837,60.8384 C29.837,62.4074 30.846,63.4934 32.306,63.4934 C33.106,63.4934 33.555,63.1624 33.818,62.9764 L33.796,63.3584 L33.874,63.4204 C34.378,63.3994 34.509,63.3894 34.992,63.3894 L35.047,63.3174 C35.002,62.6044 34.959,61.8404 34.959,60.2384 C34.959,59.2064 34.97,56.6434 35.047,55.2074 L34.97,55.1454 C34.476,55.2484 34.367,55.2694 33.807,55.3624 L33.753,55.4244 Z M33.807,62.1184 C33.654,62.2424 33.249,62.5734 32.58,62.5734 C32.009,62.5734 31.648,62.3254 31.449,62.1084 C31.219,61.8504 31.043,61.4264 31.043,60.8384 C31.043,59.9184 31.439,59.4324 31.68,59.2154 C32.207,58.7514 32.93,58.7314 33.27,58.7314 C33.501,58.7314 33.632,58.7514 33.818,58.7604 C33.829,60.4554 33.829,60.7654 33.807,62.1184 L33.807,62.1184 Z" id="Fill-43"></path>
                <path d="M41.4854,62.0772 C41.3414,62.1912 41.1014,62.3772 40.6954,62.5322 C40.3874,62.6352 40.0594,62.6872 39.7404,62.6872 C39.4014,62.6872 38.7754,62.6352 38.3264,62.1292 C37.9534,61.7052 37.9204,61.1992 37.9094,60.8382 C39.7074,60.8272 40.0044,60.8272 41.7154,60.8382 L41.7914,60.7762 C41.8024,60.3222 41.8244,59.2992 41.1994,58.5962 C40.8704,58.2242 40.2674,57.8842 39.4014,57.8842 C37.9644,57.8842 36.7364,58.8242 36.7364,60.7452 C36.7364,62.5422 37.8654,63.5132 39.6644,63.5132 C40.6394,63.5132 41.2324,63.2142 41.4184,63.1212 L41.4854,63.0492 C41.5064,62.6452 41.5174,62.5422 41.5714,62.1292 L41.4854,62.0772 Z M40.6624,60.0422 C39.6534,60.0522 39.2364,60.0632 37.9094,60.0522 C38.0184,59.0192 38.7434,58.6272 39.3574,58.6272 C39.8504,58.6272 40.3334,58.8652 40.5524,59.4322 C40.6394,59.6702 40.6514,59.8982 40.6624,60.0422 L40.6624,60.0422 Z" id="Fill-45"></path>
                <path d="M50.0284,59.2574 C50.8284,59.5884 51.8924,60.0224 51.8924,61.3444 C51.8924,62.5014 50.9824,63.5444 49.0734,63.5444 C47.9124,63.5444 47.1654,63.2144 46.9024,63.0884 L46.8594,63.0174 C46.9024,62.6554 46.9134,62.4604 46.9454,62.0674 L47.0554,62.0254 C47.3294,62.2014 47.9664,62.6354 48.9864,62.6354 C50.1154,62.6354 50.5874,62.0884 50.5874,61.4684 C50.5874,60.7454 49.9514,60.4664 49.2374,60.2084 L48.6894,59.9804 C47.9124,59.6394 46.8684,59.1954 46.8684,57.9354 C46.8684,57.5524 46.9804,57.1594 47.2094,56.8494 C47.7144,56.1684 48.6244,55.9414 49.5124,55.9414 C50.3784,55.9414 50.9044,56.0954 51.4864,56.2714 L51.5414,56.3544 C51.4974,56.7464 51.4864,56.8914 51.4544,57.2634 L51.3664,57.3044 C50.8944,57.0774 50.3784,56.8294 49.5564,56.8294 C48.6464,56.8294 48.0764,57.2324 48.0764,57.8414 C48.0764,58.3064 48.4044,58.5234 48.6344,58.6584 C48.7774,58.7404 48.8224,58.7604 49.4784,59.0294 L50.0284,59.2574 Z" id="Fill-47"></path>
                <path d="M58.44,58.0489 C58.419,58.8329 58.406,59.5669 58.406,60.4039 C58.406,61.6739 58.44,62.4389 58.462,62.8829 C58.462,63.0279 58.473,63.1729 58.483,63.3169 L58.44,63.3789 C57.914,63.3899 57.825,63.3989 57.321,63.4199 L57.256,63.3579 L57.267,62.9249 C57.025,63.0889 56.443,63.5129 55.545,63.5129 C55.118,63.5129 54.646,63.4199 54.294,63.1619 C53.592,62.6249 53.592,61.7469 53.582,60.9419 L53.582,60.3009 C53.56,58.8239 53.56,58.6579 53.526,58.1009 L53.582,58.0279 C54.096,58.0169 54.195,58.0169 54.71,57.9769 L54.777,58.0489 L54.733,60.3109 C54.733,60.5899 54.721,60.7959 54.733,61.2919 C54.743,61.7259 54.766,62.6559 55.873,62.6559 C56.52,62.6559 56.982,62.3149 57.245,62.1179 C57.256,61.5609 57.256,61.0859 57.256,60.4869 C57.256,59.0499 57.245,58.7609 57.178,58.0899 L57.245,58.0169 C57.749,58.0079 57.87,58.0079 58.374,57.9769 L58.44,58.0489 Z" id="Fill-49"></path>
                <path d="M61.6978,56.5088 C61.1368,56.5298 61.0158,56.5398 60.4788,56.5928 L60.4128,56.5298 C60.4248,56.3948 60.4248,56.2508 60.4248,56.1168 C60.4248,55.9308 60.4128,55.7658 60.4038,55.5588 L60.4788,55.4968 C61.0498,55.4558 61.1498,55.4458 61.6978,55.3948 L61.7628,55.4558 C61.7518,55.8788 61.7518,55.9828 61.7628,56.4368 L61.6978,56.5088 Z M61.6848,63.3798 C61.1148,63.3898 61.0278,63.3898 60.4898,63.4208 L60.4358,63.3478 C60.4678,62.8008 60.5008,62.3248 60.5008,61.1788 C60.5008,59.2058 60.4678,58.8328 60.3908,58.2248 L60.4468,58.1518 C60.9188,58.0798 61.0828,58.0588 61.6308,57.9448 L61.7408,58.0078 C61.7068,58.5438 61.6758,59.1028 61.6758,60.4348 C61.6758,62.3568 61.6978,62.6158 61.7408,63.3168 L61.6848,63.3798 Z" id="Fill-51"></path>
                <path d="M66.0298,60.2495 C66.4678,60.3825 67.4658,60.7035 67.4658,61.7975 C67.4658,62.2115 67.3008,62.6765 66.8518,63.0175 C66.2698,63.4825 65.4908,63.5135 65.0958,63.5135 C64.5048,63.5135 64.0108,63.4095 63.5938,63.2545 C63.5398,63.2345 63.4848,63.2145 63.4298,63.1925 L63.3748,63.1005 C63.4198,62.6975 63.4198,62.6455 63.4408,62.2325 L63.5508,62.2015 C63.7478,62.3455 64.2308,62.6975 65.0758,62.6975 C65.9418,62.6975 66.2588,62.2425 66.2588,61.9225 C66.2588,61.4475 65.7878,61.2915 65.1188,61.0855 L64.7678,60.9725 C64.3188,60.8375 63.3308,60.5385 63.3308,59.4745 C63.3308,58.4105 64.3188,57.8835 65.5468,57.8835 C66.3578,57.8835 66.9278,58.1005 67.1258,58.1725 L67.1798,58.2445 C67.1368,58.6275 67.1258,58.6695 67.0928,59.0605 L66.9938,59.1025 C66.7198,58.9365 66.2928,58.6885 65.5788,58.6885 C65.4258,58.6885 65.2728,58.6995 65.1068,58.7405 C64.7788,58.8235 64.5048,59.0405 64.5048,59.3605 C64.5048,59.8045 64.9538,59.9385 65.6348,60.1345 L66.0298,60.2495 Z" id="Fill-53"></path>
                <path d="M71.3155,60.2495 C71.7535,60.3825 72.7505,60.7035 72.7505,61.7975 C72.7505,62.2115 72.5875,62.6765 72.1355,63.0175 C71.5565,63.4825 70.7765,63.5135 70.3835,63.5135 C69.7905,63.5135 69.2965,63.4095 68.8815,63.2545 C68.8255,63.2345 68.7695,63.2145 68.7155,63.1925 L68.6615,63.1005 C68.7055,62.6975 68.7055,62.6455 68.7265,62.2325 L68.8365,62.2015 C69.0345,62.3455 69.5165,62.6975 70.3595,62.6975 C71.2255,62.6975 71.5445,62.2425 71.5445,61.9225 C71.5445,61.4475 71.0735,61.2915 70.4045,61.0855 L70.0555,60.9725 C69.6035,60.8375 68.6165,60.5385 68.6165,59.4745 C68.6165,58.4105 69.6035,57.8835 70.8325,57.8835 C71.6435,57.8835 72.2135,58.1005 72.4115,58.1725 L72.4655,58.2445 C72.4225,58.6275 72.4115,58.6695 72.3785,59.0605 L72.2795,59.1025 C72.0055,58.9365 71.5775,58.6885 70.8665,58.6885 C70.7115,58.6885 70.5585,58.6995 70.3945,58.7405 C70.0645,58.8235 69.7905,59.0405 69.7905,59.3605 C69.7905,59.8045 70.2405,59.9385 70.9195,60.1345 L71.3155,60.2495 Z" id="Fill-55"></path>
                <path d="M78.75,62.0772 C78.607,62.1912 78.366,62.3772 77.96,62.5322 C77.654,62.6352 77.324,62.6872 77.007,62.6872 C76.666,62.6872 76.042,62.6352 75.592,62.1292 C75.22,61.7052 75.186,61.1992 75.175,60.8382 C76.973,60.8272 77.27,60.8272 78.98,60.8382 L79.057,60.7762 C79.069,60.3222 79.091,59.2992 78.465,58.5962 C78.135,58.2242 77.533,57.8842 76.666,57.8842 C75.231,57.8842 74.001,58.8242 74.001,60.7452 C74.001,62.5422 75.13,63.5132 76.929,63.5132 C77.906,63.5132 78.498,63.2142 78.684,63.1212 L78.75,63.0492 C78.771,62.6452 78.784,62.5422 78.837,62.1292 L78.75,62.0772 Z M77.928,60.0422 C76.919,60.0522 76.502,60.0632 75.175,60.0522 C75.285,59.0192 76.008,58.6272 76.623,58.6272 C77.115,58.6272 77.598,58.8652 77.818,59.4322 C77.906,59.6702 77.917,59.8982 77.928,60.0422 L77.928,60.0422 Z" id="Fill-57"></path>
                <path d="M89.5635,60.6211 C89.5415,59.8981 89.3995,59.1751 88.8945,58.6271 C88.4135,58.1101 87.6765,57.8841 86.9305,57.8841 C85.8345,57.8841 85.1985,58.3071 84.8915,58.6071 C84.1565,59.2991 84.1345,60.3101 84.1345,60.7031 C84.1345,61.0441 84.1475,62.0981 84.8915,62.8111 C85.2435,63.1521 85.8695,63.5021 86.8535,63.5021 C87.6215,63.5021 88.2685,63.3281 88.7525,62.8731 C89.1145,62.5321 89.3425,62.1291 89.4655,61.6231 C89.5415,61.3131 89.5635,60.9731 89.5635,60.6211 M88.3695,60.6621 C88.3785,60.8791 88.3695,61.5721 88.1155,62.0361 C87.7975,62.6041 87.2715,62.7281 86.8665,62.7281 C86.6465,62.7281 86.4175,62.6871 86.2185,62.5941 C85.3515,62.1801 85.3405,61.1381 85.3405,60.7241 C85.3405,60.2901 85.3755,59.6901 85.6705,59.2681 C86.0545,58.6891 86.6685,58.6691 86.8775,58.6691 C87.4915,58.6691 87.8415,58.9371 88.0505,59.2571 C88.3245,59.7111 88.3695,60.4041 88.3695,60.6621" id="Fill-59"></path>
                <path d="M95.4307,62.1602 C95.3877,62.6042 95.3747,62.6562 95.3447,63.0802 L95.2667,63.1522 C94.9487,63.2962 94.5207,63.5022 93.7527,63.5022 C92.0977,63.5022 91.0217,62.3772 91.0217,60.7652 C91.0217,59.1232 92.0747,57.8842 93.7747,57.8842 C94.4887,57.8842 94.9937,58.1002 95.2777,58.2142 L95.3217,58.2862 C95.2777,58.6582 95.2667,58.7932 95.2447,59.1022 L95.1577,59.1432 C94.7957,58.8952 94.3777,58.7412 93.9407,58.7412 C93.0297,58.7412 92.2297,59.4012 92.2297,60.7232 C92.2297,62.1292 93.0737,62.6352 93.9287,62.6352 C94.6737,62.6352 95.1347,62.2732 95.3447,62.1182 L95.4307,62.1602 Z" id="Fill-61"></path>
                <path d="M100.9492,62.1602 C100.9022,62.6042 100.8932,62.6562 100.8592,63.0802 L100.7832,63.1522 C100.4662,63.2962 100.0372,63.5022 99.2702,63.5022 C97.6142,63.5022 96.5382,62.3772 96.5382,60.7652 C96.5382,59.1232 97.5932,57.8842 99.2922,57.8842 C100.0052,57.8842 100.5092,58.1002 100.7942,58.2142 L100.8372,58.2862 C100.7942,58.6582 100.7832,58.7932 100.7602,59.1022 L100.6732,59.1432 C100.3112,58.8952 99.8942,58.7412 99.4562,58.7412 C98.5462,58.7412 97.7452,59.4012 97.7452,60.7232 C97.7452,62.1292 98.5892,62.6352 99.4442,62.6352 C100.1902,62.6352 100.6512,62.2732 100.8592,62.1182 L100.9492,62.1602 Z" id="Fill-63"></path>
                <path d="M103.5576,56.5088 C102.9986,56.5298 102.8776,56.5398 102.3406,56.5928 L102.2746,56.5298 C102.2856,56.3948 102.2856,56.2508 102.2856,56.1168 C102.2856,55.9308 102.2746,55.7658 102.2646,55.5588 L102.3406,55.4968 C102.9106,55.4558 103.0096,55.4458 103.5576,55.3948 L103.6236,55.4558 C103.6126,55.8788 103.6126,55.9828 103.6236,56.4368 L103.5576,56.5088 Z M103.5466,63.3798 C102.9776,63.3898 102.8886,63.3898 102.3516,63.4208 L102.2956,63.3478 C102.3306,62.8008 102.3626,62.3248 102.3626,61.1788 C102.3626,59.2058 102.3306,58.8328 102.2526,58.2248 L102.3086,58.1518 C102.7796,58.0798 102.9436,58.0588 103.4916,57.9448 L103.6006,58.0078 C103.5686,58.5438 103.5346,59.1028 103.5346,60.4348 C103.5346,62.3568 103.5576,62.6158 103.6006,63.3168 L103.5466,63.3798 Z" id="Fill-65"></path>
                <path d="M109.1953,55.4244 C109.2513,56.0234 109.3043,56.6434 109.2943,57.9244 C108.9973,57.9034 108.8883,57.9034 108.6573,57.9034 C108.0863,57.9034 107.0443,57.9354 106.2443,58.6164 C105.7843,58.9984 105.2793,59.7114 105.2793,60.8384 C105.2793,62.4074 106.2873,63.4934 107.7473,63.4934 C108.5483,63.4934 108.9973,63.1624 109.2613,62.9764 L109.2383,63.3584 L109.3153,63.4204 C109.8203,63.3994 109.9503,63.3894 110.4343,63.3894 L110.4893,63.3174 C110.4443,62.6044 110.4013,61.8404 110.4013,60.2384 C110.4013,59.2064 110.4123,56.6434 110.4893,55.2074 L110.4123,55.1454 C109.9203,55.2484 109.8093,55.2694 109.2513,55.3624 L109.1953,55.4244 Z M109.2513,62.1184 C109.0953,62.2424 108.6903,62.5734 108.0213,62.5734 C107.4513,62.5734 107.0893,62.3254 106.8913,62.1084 C106.6623,61.8504 106.4853,61.4264 106.4853,60.8384 C106.4853,59.9184 106.8823,59.4324 107.1223,59.2154 C107.6483,58.7514 108.3713,58.7314 108.7123,58.7314 C108.9423,58.7314 109.0743,58.7514 109.2613,58.7604 C109.2703,60.4554 109.2703,60.7654 109.2513,62.1184 L109.2513,62.1184 Z" id="Fill-67"></path>
                <path d="M116.9268,62.0772 C116.7838,62.1912 116.5428,62.3772 116.1378,62.5322 C115.8288,62.6352 115.5008,62.6872 115.1838,62.6872 C114.8428,62.6872 114.2178,62.6352 113.7688,62.1292 C113.3958,61.7052 113.3628,61.1992 113.3508,60.8382 C115.1498,60.8272 115.4468,60.8272 117.1568,60.8382 L117.2338,60.7762 C117.2438,60.3222 117.2678,59.2992 116.6418,58.5962 C116.3128,58.2242 115.7098,57.8842 114.8428,57.8842 C113.4068,57.8842 112.1768,58.8242 112.1768,60.7452 C112.1768,62.5422 113.3068,63.5132 115.1068,63.5132 C116.0808,63.5132 116.6748,63.2142 116.8608,63.1212 L116.9268,63.0492 C116.9478,62.6452 116.9588,62.5422 117.0138,62.1292 L116.9268,62.0772 Z M116.1048,60.0422 C115.0958,60.0522 114.6788,60.0632 113.3508,60.0522 C113.4618,59.0192 114.1848,58.6272 114.7998,58.6272 C115.2918,58.6272 115.7758,58.8652 115.9948,59.4322 C116.0808,59.6702 116.0938,59.8982 116.1048,60.0422 L116.1048,60.0422 Z" id="Fill-69"></path>
                <path d="M123.7598,63.3794 C123.2318,63.3894 123.1658,63.3894 122.6608,63.4204 L122.5858,63.3474 C122.5858,63.2344 122.5968,63.1214 122.5968,63.0074 C122.6078,62.5014 122.6078,61.9944 122.6078,61.4884 C122.6078,59.8984 122.5968,59.7944 122.5408,59.5774 C122.3328,58.7934 121.7078,58.7934 121.5548,58.7934 C120.8968,58.7934 120.3918,59.1534 120.0958,59.3714 C120.0848,61.1684 120.1078,62.1084 120.1828,63.3174 L120.1178,63.3794 C119.5808,63.3894 119.4918,63.3894 118.9658,63.4204 L118.9118,63.3474 C118.9228,62.7694 118.9448,62.2124 118.9448,61.4474 C118.9448,59.7944 118.8668,58.9164 118.8128,58.2244 L118.8778,58.1524 C119.4258,58.0584 119.5248,58.0384 120.0398,57.9454 L120.1178,58.0174 L120.1078,58.5544 C120.3918,58.3684 121.0728,57.9144 122.0378,57.9144 C122.3118,57.9144 122.6528,57.9564 122.9478,58.1094 C123.2318,58.2654 123.4638,58.5034 123.5828,58.7814 C123.7268,59.0914 123.7368,59.4014 123.7478,60.0424 L123.7478,61.2514 C123.7798,62.4604 123.7918,62.9244 123.8258,63.3174 L123.7598,63.3794 Z" id="Fill-71"></path>
                <path d="M128.2989,62.5738 C128.2669,62.9138 128.2669,62.9868 128.2559,63.2858 L128.1999,63.3478 C127.9709,63.3998 127.7849,63.4418 127.3789,63.4418 C127.1139,63.4418 126.4239,63.4418 126.0829,62.9048 C125.8869,62.6048 125.8869,62.3568 125.8869,61.1378 L125.9079,58.8648 C125.5249,58.8648 125.5139,58.8748 125.1189,58.8858 L125.0749,58.8238 C125.0959,58.4918 125.0959,58.4098 125.0959,58.0798 L125.1619,58.0168 C125.4039,58.0168 125.5479,58.0278 125.9079,58.0168 C125.8979,57.8008 125.8979,57.5738 125.8979,57.3568 C125.8869,57.1588 125.8759,56.9648 125.8629,56.7678 L125.9189,56.6948 C126.4129,56.5818 126.5339,56.5508 127.0369,56.4068 L127.1139,56.4578 C127.0819,57.1388 127.0709,57.2738 127.0709,58.0278 C127.5309,58.0168 127.6619,58.0168 128.2879,57.9968 L128.3439,58.0588 C128.3219,58.3278 128.3099,58.4418 128.3099,58.7928 L128.2559,58.8548 C127.7069,58.8438 127.6409,58.8328 127.0609,58.8328 L127.0369,60.7548 C127.0499,60.8788 127.0499,61.4688 127.0499,61.6128 C127.0499,62.3658 127.1489,62.6048 127.6959,62.6048 C127.9269,62.6048 128.1029,62.5528 128.2229,62.5118 L128.2989,62.5738 Z" id="Fill-73"></path>
                <path d="M133.9034,60.2388 C133.9034,59.8048 133.9034,59.2368 133.8264,58.9478 C133.5964,58.1408 132.8054,57.8838 131.9944,57.8838 C131.3474,57.8838 130.7124,58.0168 130.0974,58.2248 L130.0314,58.2868 C130.0204,58.5028 130.0204,58.5648 129.9994,59.0408 L130.0874,59.0918 C130.5484,58.9058 131.0414,58.6998 131.7534,58.6998 C132.3004,58.6998 132.5534,58.8958 132.6634,59.0818 C132.7624,59.2468 132.7624,59.4428 132.7624,59.7228 L132.5764,59.7428 C130.6024,59.9598 129.3734,60.4038 129.3734,61.7888 C129.3734,62.8108 130.1414,63.5128 131.2394,63.5128 C132.0724,63.5128 132.5644,63.1418 132.7734,62.9868 L132.7624,63.3588 L132.8054,63.4208 C133.3124,63.3998 133.3984,63.3898 133.9144,63.3798 L133.9694,63.3278 C133.9144,62.6558 133.9034,62.5428 133.9034,61.2618 L133.9034,60.2388 Z M132.7734,60.4868 L132.7734,62.2118 C132.6524,62.3148 132.2574,62.6668 131.5794,62.6668 C130.5364,62.6668 130.5364,61.7778 130.5364,61.7258 C130.5364,60.8068 131.5674,60.6618 132.6754,60.5068 L132.7734,60.4868 Z" id="Fill-75"></path>
                <path d="M137.1065,63.3794 C136.5795,63.3894 136.4685,63.3994 135.9535,63.4204 L135.8995,63.3474 C135.9205,62.6154 135.9535,61.6844 135.9535,59.7014 C135.9535,58.2754 135.9535,56.7464 135.8445,55.4244 L135.8995,55.3624 C136.4365,55.2794 136.5455,55.2594 137.0945,55.1454 L137.1615,55.2174 C137.0845,56.5704 137.0845,57.9354 137.0845,59.2884 C137.0845,61.5504 137.1165,62.3364 137.1715,63.3174 L137.1065,63.3794 Z" id="Fill-77"></path>
                <path d="M143.6201,62.0772 C143.4771,62.1912 143.2361,62.3772 142.8311,62.5322 C142.5221,62.6352 142.1941,62.6872 141.8771,62.6872 C141.5361,62.6872 140.9121,62.6352 140.4621,62.1292 C140.0891,61.7052 140.0571,61.1992 140.0461,60.8382 C141.8431,60.8272 142.1411,60.8272 143.8501,60.8382 L143.9271,60.7762 C143.9371,60.3222 143.9611,59.2992 143.3351,58.5962 C143.0061,58.2242 142.4011,57.8842 141.5361,57.8842 C140.0991,57.8842 138.8721,58.8242 138.8721,60.7452 C138.8721,62.5422 140.0021,63.5132 141.8001,63.5132 C142.7761,63.5132 143.3681,63.2142 143.5561,63.1212 L143.6201,63.0492 C143.6411,62.6452 143.6531,62.5422 143.7091,62.1292 L143.6201,62.0772 Z M142.7981,60.0422 C141.7891,60.0522 141.3721,60.0632 140.0461,60.0522 C140.1551,59.0192 140.8781,58.6272 141.4911,58.6272 C141.9871,58.6272 142.4691,58.8652 142.6881,59.4322 C142.7761,59.6702 142.7871,59.8982 142.7981,60.0422 L142.7981,60.0422 Z" id="Fill-79"></path>
                <path d="M111.836,18.959 C113.74,19.542 118.072,20.932 118.072,25.686 C118.072,27.479 117.358,29.497 115.406,30.978 C112.883,32.996 109.503,33.13 107.789,33.13 C105.219,33.13 103.076,32.682 101.268,32.009 C101.029,31.92 100.791,31.83 100.553,31.74 L100.315,31.336 C100.506,29.587 100.506,29.362 100.601,27.569 L101.077,27.435 C101.934,28.062 104.028,29.587 107.694,29.587 C111.455,29.587 112.836,27.614 112.836,26.224 C112.836,24.161 110.79,23.489 107.885,22.591 L106.361,22.098 C104.409,21.515 100.125,20.215 100.125,15.597 C100.125,10.977 104.409,8.689 109.741,8.689 C113.266,8.689 115.739,9.632 116.597,9.945 L116.836,10.26 C116.645,11.918 116.597,12.097 116.453,13.802 L116.025,13.981 C114.835,13.263 112.979,12.187 109.884,12.187 C109.218,12.187 108.551,12.232 107.837,12.412 C106.409,12.77 105.219,13.712 105.219,15.102 C105.219,17.031 107.17,17.614 110.124,18.465 L111.836,18.959 Z" id="Fill-131"></path>
                <path d="M145.6377,20.5723 C145.5417,17.4343 144.9237,14.2943 142.7337,11.9183 C140.6387,9.6753 137.4487,8.6893 134.2117,8.6893 C129.4507,8.6893 126.6907,10.5283 125.3557,11.8283 C122.1677,14.8333 122.0717,19.2283 122.0717,20.9313 C122.0717,22.4113 122.1197,26.9853 125.3557,30.0793 C126.8787,31.5603 129.5927,33.0853 133.8767,33.0853 C137.2107,33.0853 140.0197,32.3223 142.1147,30.3483 C143.6857,28.8693 144.6837,27.1203 145.2067,24.9233 C145.5417,23.5783 145.6377,22.0973 145.6377,20.5723 M140.4487,20.7523 C140.4957,21.6933 140.4487,24.6993 139.3517,26.7163 C137.9727,29.1833 135.6877,29.7213 133.9267,29.7213 C132.9727,29.7213 131.9727,29.5413 131.1167,29.1383 C127.3557,27.3443 127.3077,22.8143 127.3077,21.0213 C127.3077,19.1383 127.4517,16.5373 128.7377,14.6983 C130.4037,12.1873 133.0697,12.0973 133.9737,12.0973 C136.6397,12.0973 138.1627,13.2633 139.0677,14.6533 C140.2577,16.6273 140.4487,19.6313 140.4487,20.7523" id="Fill-133"></path>
                <path d="M94.6944,20.9419 C94.6944,22.5059 93.4254,23.7759 91.8604,23.7759 C90.2954,23.7759 89.0274,22.5059 89.0274,20.9419 C89.0274,19.3779 90.2954,18.1079 91.8604,18.1079 C93.4254,18.1079 94.6944,19.3779 94.6944,20.9419" id="Fill-135"></path>
                <path d="M29.4693,1.2325 C29.4223,4.6865 29.3743,6.7935 29.3743,9.9325 C29.3743,17.4655 29.5173,24.9555 29.8983,32.4885 L29.6593,32.7575 C25.6133,32.7125 24.6613,32.7575 21.0903,32.8925 L20.8523,32.6225 C21.0903,26.3005 21.0903,24.8205 20.9953,18.7675 C19.0913,18.7225 17.1873,18.6775 15.2823,18.6775 C13.4263,18.6775 11.6643,18.7225 9.5703,18.8115 C9.6173,25.3135 9.6643,26.9285 9.9503,32.4885 L9.7123,32.7575 C5.5243,32.7125 4.6663,32.7575 1.1913,32.8925 L0.9523,32.6225 C1.0483,28.8575 1.1433,26.6605 1.1433,22.6235 C1.1433,11.5035 0.8573,5.9865 0.6193,1.3665 L0.9053,1.0975 C5.0473,1.0975 5.7613,1.0975 9.4273,0.9635 L9.6643,1.2325 L9.5703,13.0715 C11.2363,13.0715 12.9493,13.1165 14.6153,13.1165 C16.7593,13.1165 18.8523,13.0715 20.9473,13.0265 C20.9013,7.7345 20.9013,6.4345 20.5663,1.3665 L20.8053,1.0975 C24.8043,1.0975 25.4223,1.0975 29.2313,0.9635 L29.4693,1.2325 Z" id="Fill-137"></path>
                <path d="M57.0728,26.1216 C55.2628,27.0176 53.1198,28.0496 49.6458,28.0496 C46.7898,28.0496 44.8368,27.1976 43.6948,25.5826 C42.9808,24.6416 42.8388,23.7446 42.6478,22.8466 L58.0248,22.5786 L58.3098,22.2646 C58.2638,20.0676 58.2158,17.8246 57.5498,15.5826 C55.8828,10.2906 52.2158,9.2146 50.5978,8.8556 C49.4078,8.5426 48.3128,8.4526 47.2188,8.4526 C39.7428,8.4526 34.7918,13.0716 34.7918,20.8296 C34.7918,22.9366 35.1738,25.1336 35.9348,26.7046 C38.6968,32.7576 45.1718,33.2956 48.5988,33.2956 C52.5508,33.2956 54.2648,32.6226 56.7868,31.6816 L57.0728,31.3226 L57.4058,26.2566 L57.0728,26.1216 Z M42.6478,18.0936 C42.7898,16.7036 43.1228,14.8206 44.9328,13.7446 C45.5048,13.3856 46.1718,13.2506 46.8378,13.2506 C48.4088,13.2506 49.3598,14.0136 49.8848,14.8206 C50.5508,15.8076 50.5978,16.8826 50.5978,17.9136 L42.6478,18.0936 Z" id="Fill-140"></path>
                <path d="M77.1617,18.0938 C79.7817,19.0368 83.4477,20.3368 83.4477,25.2688 C83.4477,25.5828 83.4477,25.8958 83.3977,26.2568 C82.5417,32.6678 75.4017,33.2958 71.7827,33.2958 C68.3087,33.2958 66.3077,32.5788 63.9747,31.7708 L63.7387,31.3678 C63.9287,29.1258 63.9747,28.6328 64.0717,26.3008 L64.4987,26.1218 C65.2117,26.6598 65.5947,26.9738 66.4047,27.3768 C68.1647,28.2288 70.1177,28.6328 71.4497,28.6328 C74.1147,28.6328 75.2107,27.4218 75.2107,26.3008 C75.2107,24.6858 73.1147,24.0128 71.8307,23.6108 L70.0207,22.9818 C67.7837,22.1748 63.8327,20.7398 63.8327,15.9418 C63.8327,14.1478 64.4987,12.8028 65.1177,11.9948 C67.5937,8.6318 72.2597,8.4528 74.5917,8.4528 C77.6867,8.4528 79.6387,8.9908 81.8737,9.5738 L82.1137,9.8428 L81.6377,14.7308 L81.2087,14.8658 C80.0197,14.1478 78.1617,12.9828 75.2587,12.9828 C72.3067,12.9828 71.9257,14.4618 71.9257,14.9998 C71.9257,16.2558 73.2107,16.7478 74.8297,17.2858 L77.1617,18.0938 Z" id="Fill-142"></path>
            </g>
        </g>
    </g>
</svg>